<?xml version="1.0" standalone="no"?>
<!DOCTYPE svg PUBLIC "-//W3C//DTD SVG 20010904//EN"
 "http://www.w3.org/TR/2001/REC-SVG-20010904/DTD/svg10.dtd">
<svg version="1.0" xmlns="http://www.w3.org/2000/svg"
 width="952.000000pt" height="952.000000pt" viewBox="0 0 952.000000 952.000000"
 preserveAspectRatio="xMidYMid meet">
<metadata>
Created by potrace 1.14, written by Peter Selinger 2001-2017
</metadata>
<g transform="translate(0.000000,952.000000) scale(0.100000,-0.100000)"
fill="#000000" stroke="none">
<path d="M7597 9464 c-1 -1 -34 -5 -72 -9 -88 -8 -92 -9 -140 -25 -95 -31
-144 -83 -140 -146 3 -36 35 -114 47 -114 4 0 8 -9 8 -19 0 -17 -40 -38 -62
-33 -5 1 -8 -2 -8 -8 0 -5 -6 -10 -13 -10 -18 0 -142 -66 -207 -110 -90 -61
-187 -152 -259 -240 -20 -25 -42 -51 -48 -58 -7 -7 -13 -17 -13 -22 0 -5 -11
-22 -25 -38 -49 -59 -218 -411 -240 -502 -2 -8 -18 -58 -35 -110 -17 -52 -33
-102 -35 -110 -2 -8 -24 -94 -50 -190 -26 -96 -48 -183 -50 -193 -2 -9 -11
-45 -20 -80 -9 -34 -19 -73 -21 -86 -3 -14 -8 -29 -11 -35 -4 -5 -8 -19 -9
-30 -1 -12 -4 -30 -7 -41 -38 -137 -50 -176 -62 -208 -8 -20 -15 -39 -15 -42
-2 -24 -54 -160 -64 -167 -6 -4 -7 -8 -3 -8 4 0 -16 -45 -44 -101 -56 -107
-95 -149 -199 -218 -30 -20 -56 -39 -58 -43 -2 -5 -10 -8 -18 -8 -8 0 -14 -4
-14 -10 0 -5 -7 -10 -15 -10 -8 0 -15 -3 -15 -8 0 -4 -15 -13 -32 -21 -18 -8
-35 -18 -38 -21 -9 -13 -190 -109 -285 -151 -11 -5 -27 -13 -35 -18 -35 -22
-296 -124 -350 -137 -8 -2 -40 -10 -70 -19 -30 -8 -66 -17 -80 -20 -14 -3 -36
-7 -50 -10 -102 -21 -246 -24 -332 -6 -46 10 -67 22 -110 61 -29 27 -56 50
-60 50 -5 0 -8 4 -8 8 0 5 -28 38 -62 73 -82 85 -174 189 -254 288 -10 13 -23
28 -29 35 -27 31 -114 134 -131 154 -10 13 -26 32 -34 41 -76 91 -98 116 -115
134 -11 12 -44 51 -73 87 -29 36 -65 79 -80 96 -15 17 -43 51 -62 75 -19 23
-45 53 -57 66 -13 12 -23 25 -23 28 0 3 -37 49 -82 103 -46 54 -98 117 -116
140 -19 22 -41 50 -50 60 -70 83 -113 133 -152 181 -25 30 -54 64 -65 76 -11
11 -45 49 -75 84 -84 97 -83 96 -172 193 -86 95 -346 357 -390 395 -26 21 -48
15 -48 -14 0 -7 -3 -13 -8 -13 -4 0 -16 -17 -27 -37 -11 -21 -24 -41 -28 -44
-9 -6 -26 -35 -49 -79 -7 -14 -15 -27 -18 -30 -7 -7 -29 -42 -37 -60 -4 -8 -9
-17 -12 -20 -9 -7 -62 -107 -128 -240 -32 -63 -62 -118 -68 -122 -5 -4 -7 -8
-2 -8 4 0 0 -11 -9 -25 -9 -14 -13 -25 -9 -25 5 0 1 -8 -8 -17 -8 -10 -16 -21
-16 -25 -1 -5 -12 -33 -26 -63 -44 -100 -119 -302 -150 -405 -1 -3 -4 -12 -8
-20 -12 -33 -68 -236 -83 -305 -16 -68 -36 -168 -45 -220 -5 -33 -12 -73 -15
-90 -3 -16 -7 -50 -10 -75 -2 -25 -6 -61 -8 -80 -40 -310 -19 -749 48 -1070 3
-14 11 -50 17 -80 22 -111 113 -410 153 -505 7 -16 33 -77 57 -135 89 -214
237 -485 378 -690 90 -132 138 -190 298 -366 40 -44 81 -91 90 -105 10 -13 26
-33 36 -44 10 -11 35 -54 55 -94 36 -74 37 -77 36 -190 0 -64 -5 -147 -9 -186
-26 -216 -2 -301 118 -420 61 -60 192 -163 256 -200 53 -31 400 -297 508 -390
7 -5 18 -15 25 -20 7 -6 50 -40 94 -75 45 -36 99 -78 120 -95 110 -86 394
-312 425 -339 19 -17 52 -44 73 -61 61 -49 119 -99 135 -118 14 -15 33 -76 46
-142 3 -16 27 -114 50 -205 2 -8 10 -47 19 -85 8 -39 20 -84 26 -100 6 -17 11
-31 10 -33 -4 -5 13 -88 20 -102 4 -8 10 -31 13 -50 3 -19 7 -42 11 -50 3 -8
8 -26 10 -40 3 -14 16 -72 30 -130 l24 -104 -21 -26 c-43 -49 -82 -94 -102
-115 -11 -12 -28 -33 -38 -48 l-17 -27 730 0 c401 0 730 3 730 8 0 16 -152
162 -169 162 -6 0 -11 4 -11 9 0 4 -26 16 -57 27 -62 19 -144 22 -278 9 -80
-8 -242 -10 -280 -3 -37 6 -65 28 -65 51 0 13 -4 27 -9 33 -5 5 -19 41 -31 79
-13 39 -25 74 -28 80 -3 5 -7 16 -7 25 -1 8 -14 53 -28 100 -29 96 -50 170
-53 185 0 6 -4 17 -7 25 -7 18 -74 282 -81 322 -2 15 -7 31 -9 35 -3 5 -8 29
-11 56 -6 43 -4 49 24 77 31 31 135 110 144 110 3 0 21 11 40 24 42 28 280
146 296 146 5 0 10 5 10 10 0 6 3 9 8 8 9 -4 226 104 230 115 2 4 12 7 23 7
10 0 19 5 19 10 0 6 9 10 19 10 11 0 21 3 23 8 2 4 129 71 283 148 362 183
596 304 605 315 3 3 20 12 38 20 17 8 32 17 32 21 0 5 5 8 10 8 6 0 63 32 128
71 64 38 126 76 137 82 11 7 22 14 25 17 3 3 17 11 33 19 15 8 27 18 27 23 0
4 4 8 10 8 22 0 334 231 445 329 71 64 319 314 377 381 31 36 82 99 114 140
32 41 61 77 64 80 3 3 25 34 49 70 25 36 48 67 51 70 9 7 139 217 171 275 98
179 130 243 176 347 29 64 55 128 59 142 3 14 11 26 17 26 6 0 8 3 4 6 -3 3 3
26 13 50 11 24 20 46 20 49 0 3 3 10 5 17 21 58 80 248 91 293 25 100 56 234
60 262 3 19 8 45 10 57 10 49 15 82 19 120 3 23 7 57 10 76 28 203 27 632 -1
815 -3 17 -7 47 -9 68 -2 21 -6 46 -9 55 -3 9 -8 35 -11 57 -4 22 -11 58 -17
80 -5 22 -12 51 -15 65 -2 14 -13 59 -24 100 -11 41 -22 84 -24 94 -2 10 -9
33 -15 51 -6 18 -12 41 -15 51 -2 10 -14 51 -25 89 -12 39 -28 90 -35 115 -7
25 -32 104 -55 175 -23 72 -48 150 -55 175 -7 25 -17 56 -23 70 -5 14 -10 30
-11 35 -6 35 -13 62 -22 77 -5 10 -9 25 -9 35 0 14 -7 40 -28 103 -3 8 -6 22
-7 30 -1 8 -5 29 -9 47 -7 31 -8 31 -44 20 -20 -6 -91 -10 -157 -11 -103 0
-141 5 -235 29 -78 21 -212 100 -279 165 -59 57 -141 173 -141 201 0 5 -4 17
-10 27 -14 24 -38 125 -36 153 1 24 2 24 119 24 73 0 117 -3 117 -10 2 -36 14
-92 22 -102 6 -7 8 -13 4 -13 -9 0 42 -81 72 -113 53 -57 174 -118 267 -135
43 -8 183 -8 230 0 172 28 248 86 315 238 13 30 41 71 61 92 44 44 83 51 307
52 l152 0 0 98 c0 87 -3 101 -22 123 -29 33 -100 80 -213 140 -109 58 -163 94
-214 143 -42 40 -131 168 -131 188 0 7 -3 14 -8 16 -4 2 -19 28 -32 58 -89
195 -172 300 -285 357 -55 28 -163 65 -182 62 -4 -1 -10 0 -13 1 -15 5 -54 10
-135 16 -143 10 -155 11 -158 8z m472 -773 c37 -27 54 -89 38 -140 -26 -77
-126 -106 -185 -53 -121 107 15 287 147 193z m-1133 -2865 c-8 -223 -18 -351
-26 -351 -1 0 -3 -13 -5 -28 -7 -51 -46 -198 -77 -291 -16 -50 -31 -95 -32
-101 -1 -5 -12 -31 -24 -57 -12 -26 -22 -49 -22 -53 0 -18 -126 -256 -171
-322 -16 -23 -29 -46 -29 -51 0 -6 -3 -12 -7 -14 -5 -1 -28 -32 -52 -68 -25
-36 -47 -67 -50 -70 -4 -3 -24 -27 -46 -55 -114 -144 -283 -306 -380 -365 -22
-13 -42 -27 -45 -31 -3 -4 -28 -19 -55 -34 -28 -14 -75 -39 -105 -56 -54 -29
-238 -109 -260 -113 -4 -1 -80 -28 -120 -43 -8 -3 -19 -7 -25 -8 -5 -2 -57
-16 -115 -33 -58 -17 -159 -43 -225 -57 -136 -31 -128 -29 -255 -50 -150 -25
-153 -26 -190 -30 -19 -2 -53 -6 -75 -9 -117 -15 -306 -32 -445 -41 -245 -15
-672 -21 -689 -10 -5 3 -12 1 -16 -5 -4 -6 -11 -8 -17 -4 -8 5 -66 9 -186 13
-30 1 -32 3 -18 16 8 8 18 24 21 35 3 11 11 20 16 20 5 0 9 4 9 9 0 12 101
165 112 169 4 2 8 8 8 13 0 5 33 58 73 117 41 59 122 179 182 267 59 88 115
168 123 178 8 9 20 26 26 36 27 47 81 121 88 121 5 0 8 5 8 11 0 8 102 160
126 187 1 2 33 6 71 8 37 3 94 6 126 8 31 2 57 0 57 -5 0 -5 -4 -9 -10 -9 -5
0 -10 -5 -10 -10 0 -6 -5 -16 -11 -23 -6 -7 -80 -120 -165 -252 -85 -132 -161
-248 -169 -258 -8 -9 -15 -20 -15 -22 0 -9 -54 -90 -62 -93 -5 -2 -8 -7 -8
-12 0 -4 -29 -52 -65 -107 -36 -54 -71 -106 -78 -117 -6 -10 -20 -29 -30 -42
l-18 -24 73 -1 c464 -3 768 7 1033 36 61 6 68 7 143 20 23 4 52 8 65 10 12 1
33 5 47 9 14 3 36 8 50 11 20 4 151 36 195 48 99 27 365 136 365 149 0 5 4 7
9 4 5 -3 19 3 32 13 13 10 27 18 30 17 10 -2 218 134 277 182 31 26 66 54 76
62 10 8 64 60 120 115 124 123 217 241 301 383 36 59 69 113 75 120 6 6 8 12
5 12 -3 0 11 31 30 70 29 58 57 124 69 165 2 6 8 22 14 37 9 23 42 125 48 151
1 4 2 8 4 10 1 1 3 11 5 22 2 11 8 38 14 60 16 65 24 99 26 120 2 11 8 47 14
80 6 33 13 98 15 143 3 46 7 86 10 89 2 3 1 16 -4 29 -5 13 -6 24 -2 24 4 0 7
21 7 48 -1 26 0 49 1 52 1 3 51 6 109 6 l107 0 -6 -180z"/>
<path d="M1390 2398 c0 -5 -4 -6 -10 -3 -22 13 -177 -63 -254 -125 -34 -27
-115 -110 -149 -153 -37 -45 -127 -174 -127 -181 0 -2 -15 -30 -33 -63 -67
-120 -171 -383 -184 -467 -3 -16 -9 -40 -14 -54 -5 -14 -7 -27 -4 -30 2 -3 1
-10 -4 -16 -5 -6 -12 -31 -15 -56 -3 -25 -8 -55 -10 -67 -23 -115 -26 -334 -8
-473 17 -126 68 -287 118 -373 44 -76 136 -189 172 -213 15 -10 37 -27 49 -38
13 -12 40 -30 60 -41 21 -11 41 -24 45 -30 5 -6 158 -11 423 -13 l415 -3 68
40 c254 150 407 428 427 773 2 35 4 68 5 73 1 6 2 12 1 15 -1 3 -3 55 -5 115
-2 61 -7 121 -10 135 -3 14 -8 41 -11 60 -2 19 -7 46 -10 60 -3 14 -8 37 -10
51 -2 15 -11 53 -20 85 -9 33 -17 66 -20 74 -22 88 -127 332 -188 435 -149
253 -308 411 -474 471 -53 19 -223 28 -223 12z"/>
</g>
</svg>
