<?xml version="1.0" encoding="UTF-8"?>
<svg width="112mm" height="126mm" version="1.1" viewBox="0 0 112 126" xml:space="preserve" xmlns="http://www.w3.org/2000/svg"><g transform="translate(-61.1 -110)"><path d="m151 115c-14.7 4.79-12.6 25.5-18.5 33.6-4.28 3.57-15.5 9.43-20.9 7.36-3.11-2.71-5.89-6.41-8.32-9.21-6.6-7.59-12.9-16.2-20.3-23-10.6 15.7-14.5 34-6.27 51.9 1.64 3.56 3.63 6.97 6.06 10.1 1.53 1.94 3.83 3.87 4.92 6.09 1.29 2.61-0.85 6.42 0.584 8.92 1.29 2.24 4.85 4.1 6.87 5.69 3.45 2.71 6.84 5.5 10.3 8.18 1.82 1.41 5.86 4.81 5.86 4.81l3.27 13.7s-2.39 2.66-3.31 3.97h21.2c-0.924-1.31-2.42-3.24-3.97-3.81-2.49-0.917-5.73 0.727-8.16-0.319-1.2-2.67-3.54-11.7-3.8-13.5 2.19-2.39 6-3.69 8.53-5.03 8.07-4.26 16.9-8.08 24.1-13.7 12.9-10.1 21.1-27.2 19.5-43.7-0.76-7.99-4-14.8-5.78-22.5-5.51 1.31-11.4-1.66-11.9-7.67h3.18c0.115 4.91 6.96 6.34 10.6 3.93 1.34-0.89 1.42-3.19 2.72-3.77 1.24-0.332 0.853-0.271 6.51-0.271-0.197-4.32-4.6-4.25-7-6.83-2.88-3.09-2.4-7.17-7.25-8.62-3.32-0.991-12.9-1.19-8.73 3.91m8.47 5.46c1.95-0.627 2.9 2.41 1.04 3.1-2.11 0.781-3.19-2.41-1.04-3.1m-63.5 69.1c3.38-5.32 10.6-15.6 10.6-15.6l3.39-0.272s-5.73 8.91-8.47 13c12.9 0 24.6 0.414 34.1-9.79 4.06-4.36 6.41-10 7.24-15.9 0.185-1.3 0.286-4.71 0.286-4.71h2.87s-0.141 5.34-0.334 6.56c-1.16 6.88-4.51 13.1-9.5 18-11 10.7-40.2 8.74-40.2 8.74m-23.5 14.4c-3.74 0.793-6.4 4.59-8 7.8-4.15 8.29-5.32 22.3 6.41 24.9 1.66 0.364 3.37 0.364 5.03 0 11.6-2.55 10.8-16.6 6.55-24.9-1.79-3.5-5.32-8.79-9.99-7.8z" fill="#fff"/></g></svg>
