<?xml version="1.0" encoding="UTF-8"?>
<!-- Created with Inkscape (http://www.inkscape.org/) -->
<svg width="324mm" height="126mm" version="1.1" viewBox="0 0 324 126" xml:space="preserve" xmlns="http://www.w3.org/2000/svg"><g transform="translate(344 -81.5)"><path d="m-254 85.7c-14.7 4.79-12.6 25.5-18.5 33.6-4.28 3.57-15.5 9.43-20.9 7.36-3.11-2.71-5.89-6.41-8.32-9.21-6.6-7.59-12.9-16.2-20.3-23-10.6 15.7-14.5 34-6.27 51.9 1.64 3.56 3.63 6.97 6.06 10.1 1.53 1.94 3.83 3.87 4.92 6.09 1.29 2.61-0.85 6.42 0.584 8.92 1.29 2.24 4.85 4.1 6.87 5.69 3.45 2.71 6.84 5.5 10.3 8.18 1.82 1.41 5.86 4.81 5.86 4.81l3.27 13.7s-2.39 2.66-3.31 3.97h21.2c-0.924-1.31-2.42-3.24-3.97-3.81-2.49-0.917-5.73 0.727-8.16-0.319-1.2-2.67-3.54-11.7-3.8-13.5 2.19-2.39 6-3.69 8.53-5.03 8.07-4.26 16.9-8.08 24.1-13.7 12.9-10.1 21.1-27.2 19.5-43.7-0.76-7.99-4-14.8-5.78-22.5-5.51 1.31-11.4-1.66-11.9-7.67h3.18c0.115 4.91 6.96 6.34 10.6 3.93 1.34-0.89 1.42-3.19 2.72-3.77 1.24-0.332 0.853-0.271 6.51-0.271-0.197-4.32-4.6-4.25-7-6.83-2.88-3.09-2.4-7.17-7.25-8.62-3.32-0.991-12.9-1.19-8.73 3.91m8.47 5.46c1.95-0.627 2.9 2.41 1.04 3.1-2.11 0.781-3.19-2.41-1.04-3.1m-63.5 69.1c3.38-5.32 10.6-15.6 10.6-15.6l3.39-0.272s-5.73 8.91-8.47 13c12.9 0 24.6 0.414 34.1-9.79 4.06-4.36 6.41-10 7.24-15.9 0.185-1.3 0.286-4.71 0.286-4.71h2.87s-0.141 5.34-0.334 6.56c-1.16 6.88-4.51 13.1-9.5 18-11 10.7-40.2 8.74-40.2 8.74m-23.5 14.4c-3.74 0.793-6.4 4.59-8 7.8-4.15 8.29-5.32 22.3 6.41 24.9 1.66 0.364 3.37 0.364 5.03 0 11.6-2.55 10.8-16.6 6.55-24.9-1.79-3.5-5.32-8.79-9.99-7.8z" fill="#fff"/><text transform="scale(.265)" font-family="sans-serif" font-size="40px" letter-spacing="3.95px" style="line-height:0.9;shape-inside:url(#rect356);white-space:pre" xml:space="preserve"/><g fill="#fff" stroke-width="34.8" aria-label="Sable's Market"><path d="m-201 140q-5.11 0-8.15-2.11-3.02-2.13-3.63-5.99h-1.12l0.914-3.99q0.686 3.61 3.68 5.69 3.02 2.06 7.52 2.06 4.01 0 6.15-1.63 2.16-1.65 2.16-4.7 0-2.08-0.991-3.45-0.991-1.4-3.18-2.26-2.18-0.889-5.84-1.4-4.85-0.66-8.05-2.16-3.18-1.5-4.78-3.81-1.57-2.34-1.57-5.49 0-4.7 3.2-7.34t8.79-2.64q3.28 0 5.61 0.94t3.68 2.79q1.35 1.83 1.7 4.52h1.12l-0.94 3.84q-0.61-3.53-3.51-5.64-2.87-2.11-6.98-2.11-3.53 0-5.59 1.45-2.03 1.42-2.03 3.94 0 1.75 1.04 3.02t3.28 2.18 5.79 1.57q5.13 0.787 8.26 2.24 3.15 1.45 4.6 3.76t1.45 5.69q0 5.18-3.33 8.1-3.3 2.92-9.25 2.92zm-16.9-0.508v-11.6h4.95v11.6zm23.2-26.6v-11.6h4.98v11.6z"/><path d="m-161 139q-1.35 0-2.06-0.838-0.711-0.864-0.711-2.44v-6.88l0.432-0.965-0.254-3.15-0.178-1.83v-2.01q0-1.73-0.737-2.9-0.711-1.17-2.13-1.75-1.42-0.61-3.48-0.61-2.97 0-4.67 1.22-1.7 1.19-2.18 3.61l-4.57-0.94q0.457-2.77 1.88-4.6 1.45-1.85 3.86-2.77 2.44-0.914 5.87-0.914 3.66 0 6.07 1.04 2.44 1.04 3.66 3.12 1.22 2.06 1.22 5.21v14.3h3.84v4.09zm-12.5 0.356q-4.27 0-6.5-1.93-2.24-1.96-2.24-5.69 0-3.35 1.9-5.16 1.9-1.83 6.3-2.74l11.7-2.41v3.35l-10.9 2.46q-2.06 0.483-3.05 1.5-0.991 0.991-0.991 2.69 0 1.9 1.17 2.87t3.4 0.965q2.72 0 4.78-1.3 2.08-1.32 3.23-3.68 1.17-2.36 1.17-5.56l1.27 5.99h-1.65q-0.584 4.27-3 6.45t-6.58 2.18z"/><path d="m-148 140v-36.8h-5.05v-4.09h9.83v21.9l-0.152 3.61v3.96l0.152 6.1-4.55 5.28zm13.9-0.178q-3.25 0-5.84-1.12-2.57-1.14-4.34-3.28-1.75-2.13-2.51-5.21l3.45-4.55q0 2.87 1.04 5.11 1.04 2.21 3.02 3.48 2.01 1.27 4.85 1.27 2.92 0 4.9-1.22 1.98-1.24 3-3.45 1.02-2.24 1.02-5.23 0-2.92-1.12-5.13t-3.12-3.45-4.67-1.24q-2.79 0-4.8 1.24-1.98 1.24-3.05 3.48-1.07 2.21-1.07 5.16l-0.787-6.22h1.12q0.508-2.34 1.73-4.11 1.22-1.8 3.2-2.82t4.72-1.02q2.79 0 5.13 1.04 2.36 1.04 4.06 2.95t2.64 4.52q0.94 2.59 0.94 5.69 0 4.17-1.65 7.37-1.65 3.18-4.7 4.98-3.02 1.78-7.16 1.78z"/><path d="m-105 135h5.23v4.09h-15.2v-4.09h5.23v-32h-5.23v-4.09h10z"/><path d="m-81.6 140q-4.29 0-7.42-1.78-3.12-1.8-4.8-4.95-1.68-3.18-1.68-7.29 0-4.14 1.7-7.34 1.7-3.23 4.78-5.03 3.07-1.83 7.16-1.83 4.14 0 7.14 1.8 3.02 1.8 4.62 5 1.63 3.2 1.63 7.39 0 0.61-0.0254 0.965-0.0254 0.33-0.0762 0.559h-4.72q0.0508-0.381 0.0762-0.813 0.0254-0.457 0.0254-1.07 0-2.77-1.04-4.9-1.02-2.16-2.95-3.4t-4.67-1.24q-2.64 0-4.62 1.27-1.98 1.24-3.1 3.48-1.09 2.24-1.09 5.16 0 2.82 1.07 5 1.09 2.16 3.1 3.4 2.03 1.22 4.85 1.22 2.92 0 5-1.35 2.11-1.37 3.1-3.73l4.52 1.7q-1.47 3.61-4.8 5.69t-7.77 2.08zm-10.9-12.5v-3.63h22.5l1.42 3.63z"/><path d="m-61.1 101h4.65l-0.686 13h-3.28z"/><path d="m-35.3 140q-2.57 0-4.37-0.762-1.78-0.787-2.82-2.13-1.02-1.37-1.27-3.15h-1.14l0.94-3q0.432 2.29 2.44 3.73t5.05 1.45q2.57 0 3.91-1.02 1.37-1.04 1.37-3.02 0-1.85-1.42-2.82-1.4-0.991-5.05-1.57-5.99-0.94-8.48-3.05t-2.49-5.46q0-3.3 2.18-5.36t6.22-2.06q2.49 0 4.11 0.787t2.49 2.18q0.889 1.37 1.12 3.2h1.14l-0.94 2.84q-0.406-2.26-2.31-3.71-1.88-1.45-4.65-1.45-2.24 0-3.43 0.965-1.17 0.965-1.17 2.46 0 1.7 1.68 2.69 1.7 0.965 5.31 1.57 5.74 0.889 8.08 3.02 2.36 2.13 2.36 5.74 0 3.71-2.24 5.82-2.21 2.08-6.63 2.08zm-13.4-0.508v-8.53h4.78v8.53zm16.4-18.7v-8.51h4.78v8.51z"/><path d="m-196 190-12.3-34 3.61-4.24 11.9 33.4h-1.27l12-33.4 3.23 4.24-12.3 34zm-22.7 0v-4.52h5.66v-29.2h-5.66v-4.52h14l-0.635 4.52h-3.07v29.2h5.97v4.52zm33.8 0v-4.52h6.15v-29.2h-3.45l0.127-4.52h14v4.52h-5.66v29.2h5.66v4.52z"/><path d="m-142 190q-1.35 0-2.06-0.838-0.711-0.864-0.711-2.44v-6.88l0.432-0.965-0.254-3.15-0.178-1.83v-2.01q0-1.73-0.737-2.9-0.711-1.17-2.13-1.75-1.42-0.61-3.48-0.61-2.97 0-4.67 1.22-1.7 1.19-2.18 3.61l-4.57-0.94q0.457-2.77 1.88-4.6 1.45-1.85 3.86-2.77 2.44-0.914 5.87-0.914 3.66 0 6.07 1.04 2.44 1.04 3.66 3.12 1.22 2.06 1.22 5.21v14.3h3.84v4.09zm-12.5 0.356q-4.27 0-6.5-1.93-2.24-1.96-2.24-5.69 0-3.35 1.9-5.16 1.9-1.83 6.3-2.74l11.7-2.41v3.35l-10.9 2.46q-2.06 0.483-3.05 1.5-0.991 0.991-0.991 2.69 0 1.9 1.17 2.87t3.4 0.965q2.72 0 4.78-1.3 2.08-1.32 3.23-3.68 1.17-2.36 1.17-5.56l1.27 5.99h-1.65q-0.584 4.27-3 6.45t-6.58 2.18z"/><path d="m-121 186h5v4.09h-15v-4.09h5.23v-19h-5.23v-4.09h10zm9.91-18q-0.533-0.152-1.12-0.229-0.559-0.0762-1.14-0.0762-3.48 0-5.56 2.49t-2.08 6.93l-1.07-6.07h1.27q0.33-2.84 1.4-4.75 1.07-1.93 2.77-2.9t3.91-0.965q0.432 0 0.813 0.0508 0.406 0.0254 0.813 0.102z"/><path d="m-98.1 186h4.37v4.09h-14.2v-4.09h5.03v-32h-5.03v-4.09h9.8zm9.3-13.2 10.2 13.2h3.43v4.09h-14v-4.09h4.65l-7.72-10.3zm-10.7 10.2-0.991-3.76 15.2-12.3h-7.72v-4.09h17.6v4.09h-3.71z"/><path d="m-56.7 190q-4.29 0-7.42-1.78-3.12-1.8-4.8-4.95-1.68-3.18-1.68-7.29 0-4.14 1.7-7.34 1.7-3.23 4.78-5.03 3.07-1.83 7.16-1.83 4.14 0 7.14 1.8 3.02 1.8 4.62 5 1.63 3.2 1.63 7.39 0 0.61-0.0254 0.965-0.0254 0.33-0.0762 0.559h-4.72q0.0508-0.381 0.0762-0.813 0.0254-0.457 0.0254-1.07 0-2.77-1.04-4.9-1.02-2.16-2.95-3.4t-4.67-1.24q-2.64 0-4.62 1.27-1.98 1.24-3.1 3.48-1.09 2.24-1.09 5.16 0 2.82 1.07 5 1.09 2.16 3.1 3.4 2.03 1.22 4.85 1.22 2.92 0 5-1.35 2.11-1.37 3.1-3.73l4.52 1.7q-1.47 3.61-4.8 5.69-3.33 2.08-7.77 2.08zm-10.9-12.5v-3.63h22.5l1.42 3.63z"/><path d="m-29.4 183q0 1.75 0.635 2.62 0.66 0.838 1.9 0.838t1.9-0.864q0.66-0.889 0.66-2.59v-2.67h4.24v2.62q0 2.51-0.737 4.27-0.711 1.75-2.24 2.67-1.52 0.914-3.94 0.914-2.49 0-4.09-0.94-1.57-0.965-2.36-2.69-0.762-1.75-0.762-4.17v-15.8h-4.57v-4.09h4.57v-6.86h4.78v6.86h8.92l-0.0508 4.09h-8.86z"/></g></g></svg>
