<?xml version="1.0" encoding="UTF-8"?>
<!-- Created with Inkscape (http://www.inkscape.org/) -->
<svg width="145mm" height="205mm" version="1.1" viewBox="0 0 145 205" xml:space="preserve" xmlns="http://www.w3.org/2000/svg"><g transform="translate(361 -81.9)"><path d="m-254 86.1c-14.7 4.79-12.6 25.5-18.5 33.6-4.28 3.57-15.5 9.43-20.9 7.36-3.11-2.71-5.89-6.41-8.32-9.21-6.6-7.59-12.9-16.2-20.3-23-10.6 15.7-14.5 34-6.27 51.9 1.64 3.56 3.63 6.97 6.06 10.1 1.53 1.94 3.83 3.87 4.92 6.09 1.29 2.61-0.85 6.42 0.584 8.92 1.29 2.24 4.85 4.1 6.87 5.69 3.45 2.71 6.84 5.5 10.3 8.18 1.82 1.41 5.86 4.81 5.86 4.81l3.27 13.7s-2.39 2.66-3.31 3.97h21.2c-0.924-1.31-2.42-3.24-3.97-3.81-2.49-0.917-5.73 0.727-8.16-0.319-1.2-2.67-3.54-11.7-3.8-13.5 2.19-2.39 6-3.69 8.53-5.03 8.07-4.26 16.9-8.08 24.1-13.7 12.9-10.1 21.1-27.2 19.5-43.7-0.76-7.99-4-14.8-5.78-22.5-5.51 1.31-11.4-1.66-11.9-7.67h3.18c0.115 4.91 6.96 6.34 10.6 3.93 1.34-0.89 1.42-3.19 2.72-3.77 1.24-0.332 0.853-0.271 6.51-0.271-0.197-4.32-4.6-4.25-7-6.83-2.88-3.09-2.4-7.17-7.25-8.62-3.32-0.991-12.9-1.19-8.73 3.91m8.47 5.46c1.95-0.627 2.9 2.41 1.04 3.1-2.11 0.781-3.19-2.41-1.04-3.1m-63.5 69.1c3.38-5.32 10.6-15.6 10.6-15.6l3.39-0.272s-5.73 8.91-8.47 13c12.9 0 24.6 0.414 34.1-9.79 4.06-4.36 6.41-10 7.24-15.9 0.185-1.3 0.286-4.71 0.286-4.71h2.87s-0.141 5.34-0.334 6.56c-1.16 6.88-4.51 13.1-9.5 18-11 10.7-40.2 8.74-40.2 8.74m-23.5 14.4c-3.74 0.793-6.4 4.59-8 7.8-4.15 8.29-5.32 22.3 6.41 24.9 1.66 0.364 3.37 0.364 5.03 0 11.6-2.55 10.8-16.6 6.55-24.9-1.79-3.5-5.32-8.79-9.99-7.8z" fill="#fff"/><text transform="scale(.265)" font-family="sans-serif" font-size="40px" letter-spacing="3.95px" style="line-height:0.9;shape-inside:url(#rect356);white-space:pre" xml:space="preserve"/><g fill="#fff" stroke-width="28.7" aria-label="Sable's Market"><path d="m-347 250q-3.69 0-5.89-1.52-2.18-1.54-2.62-4.33h-0.807l0.66-2.88q0.495 2.6 2.66 4.11 2.18 1.49 5.43 1.49 2.9 0 4.44-1.17 1.56-1.19 1.56-3.39 0-1.5-0.715-2.49-0.715-1.01-2.29-1.63-1.58-0.642-4.22-1.01-3.5-0.477-5.82-1.56-2.29-1.08-3.45-2.75-1.14-1.69-1.14-3.96 0-3.39 2.31-5.3t6.35-1.91q2.37 0 4.05 0.679t2.66 2.02q0.972 1.32 1.23 3.27h0.807l-0.679 2.77q-0.44-2.55-2.53-4.07-2.07-1.52-5.04-1.52-2.55 0-4.04 1.05-1.47 1.03-1.47 2.84 0 1.27 0.752 2.18 0.752 0.917 2.37 1.58t4.18 1.14q3.71 0.569 5.96 1.61 2.27 1.05 3.32 2.71 1.05 1.67 1.05 4.11 0 3.74-2.4 5.85-2.38 2.11-6.68 2.11zm-12.2-0.367v-8.37h3.58v8.37zm16.8-19.2v-8.37h3.6v8.37z"/><path d="m-318 250q-0.972 0-1.49-0.605-0.514-0.624-0.514-1.76v-4.97l0.312-0.697-0.183-2.27-0.128-1.32v-1.45q0-1.25-0.532-2.09-0.514-0.844-1.54-1.27-1.03-0.44-2.51-0.44-2.15 0-3.38 0.881-1.23 0.862-1.58 2.6l-3.3-0.679q0.33-2 1.36-3.32 1.05-1.34 2.79-2 1.76-0.66 4.24-0.66 2.64 0 4.38 0.752 1.76 0.752 2.64 2.26 0.881 1.49 0.881 3.76v10.3h2.77v2.95zm-9.06 0.257q-3.08 0-4.7-1.39-1.61-1.41-1.61-4.11 0-2.42 1.38-3.72 1.38-1.32 4.55-1.98l8.46-1.74v2.42l-7.89 1.78q-1.49 0.349-2.2 1.08-0.715 0.715-0.715 1.94 0 1.38 0.844 2.07 0.844 0.697 2.46 0.697 1.96 0 3.45-0.936 1.5-0.954 2.33-2.66 0.844-1.71 0.844-4.02l0.917 4.33h-1.19q-0.422 3.08-2.16 4.66-1.74 1.58-4.75 1.58z"/><path d="m-308 250v-26.6h-3.65v-2.95h7.1v15.8l-0.11 2.6v2.86l0.11 4.4-3.28 3.82zm10-0.128q-2.35 0-4.22-0.807-1.85-0.826-3.14-2.37-1.27-1.54-1.82-3.76l2.49-3.28q0 2.07 0.752 3.69 0.752 1.6 2.18 2.51 1.45 0.917 3.5 0.917 2.11 0 3.54-0.881 1.43-0.899 2.16-2.49 0.734-1.61 0.734-3.78 0-2.11-0.807-3.71-0.807-1.6-2.26-2.49-1.45-0.899-3.38-0.899-2.02 0-3.47 0.899-1.43 0.899-2.2 2.51-0.77 1.6-0.77 3.72l-0.569-4.49h0.807q0.367-1.69 1.25-2.97 0.881-1.3 2.31-2.04t3.41-0.734q2.02 0 3.71 0.752 1.71 0.752 2.94 2.13 1.23 1.38 1.91 3.27 0.679 1.87 0.679 4.11 0 3.01-1.19 5.32-1.19 2.29-3.39 3.6-2.18 1.28-5.17 1.28z"/><path d="m-277 247h3.78v2.95h-11v-2.95h3.78v-23.1h-3.78v-2.95h7.23z"/><path d="m-260 250q-3.1 0-5.36-1.28-2.26-1.3-3.47-3.58-1.21-2.29-1.21-5.26 0-2.99 1.23-5.3 1.23-2.33 3.45-3.63 2.22-1.32 5.17-1.32 2.99 0 5.15 1.3 2.18 1.3 3.34 3.61 1.17 2.31 1.17 5.34 0 0.44-0.0183 0.697-0.0183 0.238-0.055 0.404h-3.41q0.0367-0.275 0.055-0.587 0.0183-0.33 0.0183-0.77 0-2-0.752-3.54-0.734-1.56-2.13-2.46-1.39-0.899-3.38-0.899-1.91 0-3.34 0.917-1.43 0.899-2.24 2.51-0.789 1.61-0.789 3.72 0 2.04 0.77 3.61 0.789 1.56 2.24 2.46 1.47 0.881 3.5 0.881 2.11 0 3.61-0.972 1.52-0.991 2.24-2.7l3.27 1.23q-1.06 2.6-3.47 4.11-2.4 1.5-5.61 1.5zm-7.85-9.03v-2.62h16.2l1.03 2.62z"/><path d="m-245 222h3.36l-0.495 9.36h-2.37z"/><path d="m-226 250q-1.85 0-3.16-0.55-1.28-0.569-2.04-1.54-0.734-0.991-0.917-2.27h-0.826l0.679-2.16q0.312 1.65 1.76 2.7 1.45 1.05 3.65 1.05 1.85 0 2.83-0.734 0.991-0.752 0.991-2.18 0-1.34-1.03-2.04-1.01-0.715-3.65-1.14-4.33-0.679-6.13-2.2-1.8-1.52-1.8-3.94 0-2.38 1.58-3.87 1.58-1.49 4.49-1.49 1.8 0 2.97 0.569 1.17 0.569 1.8 1.58 0.642 0.991 0.807 2.31h0.826l-0.679 2.05q-0.294-1.63-1.67-2.68-1.36-1.05-3.36-1.05-1.61 0-2.48 0.697-0.844 0.697-0.844 1.78 0 1.23 1.21 1.94 1.23 0.697 3.83 1.14 4.15 0.642 5.83 2.18 1.71 1.54 1.71 4.15 0 2.68-1.61 4.2-1.6 1.5-4.79 1.5zm-9.7-0.367v-6.16h3.45v6.16zm11.9-13.5v-6.15h3.45v6.15z"/><path d="m-345 287-8.86-24.5 2.6-3.06 8.6 24.1h-0.917l8.64-24.1 2.33 3.06-8.88 24.5zm-16.4 0v-3.27h4.09v-21.1h-4.09v-3.27h10.1l-0.459 3.27h-2.22v21.1h4.31v3.27zm24.4 0v-3.27h4.44v-21.1h-2.49l0.0917-3.27h10.1v3.27h-4.09v21.1h4.09v3.27z"/><path d="m-305 287q-0.972 0-1.49-0.605-0.514-0.624-0.514-1.76v-4.97l0.312-0.697-0.183-2.27-0.128-1.32v-1.45q0-1.25-0.532-2.09-0.514-0.844-1.54-1.27-1.03-0.44-2.51-0.44-2.15 0-3.38 0.881-1.23 0.862-1.58 2.6l-3.3-0.679q0.33-2 1.36-3.32 1.05-1.34 2.79-2 1.76-0.66 4.24-0.66 2.64 0 4.38 0.752 1.76 0.752 2.64 2.26 0.881 1.49 0.881 3.76v10.3h2.77v2.95zm-9.06 0.257q-3.08 0-4.7-1.39-1.61-1.41-1.61-4.11 0-2.42 1.38-3.72 1.38-1.32 4.55-1.98l8.46-1.74v2.42l-7.89 1.78q-1.49 0.349-2.2 1.08-0.715 0.715-0.715 1.94 0 1.38 0.844 2.07 0.844 0.697 2.46 0.697 1.96 0 3.45-0.936 1.5-0.954 2.33-2.66 0.844-1.71 0.844-4.02l0.917 4.33h-1.19q-0.422 3.08-2.16 4.66-1.74 1.58-4.75 1.58z"/><path d="m-290 284h3.61v2.95h-10.8v-2.95h3.78v-13.7h-3.78v-2.95h7.23zm7.15-13q-0.385-0.11-0.807-0.165-0.404-0.055-0.826-0.055-2.51 0-4.02 1.8-1.5 1.8-1.5 5.01l-0.77-4.38h0.917q0.238-2.05 1.01-3.43 0.77-1.39 2-2.09t2.83-0.697q0.312 0 0.587 0.0367 0.294 0.0183 0.587 0.0734z"/><path d="m-273 284h3.16v2.95h-10.2v-2.95h3.63v-23.1h-3.63v-2.95h7.08zm6.71-9.54 7.39 9.54h2.48v2.95h-10.1v-2.95h3.36l-5.58-7.47zm-7.72 7.39-0.715-2.71 11-8.88h-5.58v-2.95h12.7v2.95h-2.68z"/><path d="m-243 287q-3.1 0-5.36-1.28-2.26-1.3-3.47-3.58-1.21-2.29-1.21-5.26 0-2.99 1.23-5.3 1.23-2.33 3.45-3.63 2.22-1.32 5.17-1.32 2.99 0 5.15 1.3 2.18 1.3 3.34 3.61 1.17 2.31 1.17 5.34 0 0.44-0.0183 0.697-0.0183 0.238-0.055 0.404h-3.41q0.0367-0.275 0.055-0.587 0.0183-0.33 0.0183-0.77 0-2-0.752-3.54-0.734-1.56-2.13-2.46t-3.38-0.899q-1.91 0-3.34 0.917-1.43 0.899-2.24 2.51-0.789 1.61-0.789 3.72 0 2.04 0.77 3.61 0.789 1.56 2.24 2.46 1.47 0.881 3.5 0.881 2.11 0 3.61-0.972 1.52-0.991 2.24-2.7l3.27 1.23q-1.06 2.6-3.47 4.11-2.4 1.5-5.61 1.5zm-7.85-9.03v-2.62h16.2l1.03 2.62z"/><path d="m-223 281q0 1.27 0.459 1.89 0.477 0.605 1.38 0.605 0.899 0 1.38-0.624 0.477-0.642 0.477-1.87v-1.93h3.06v1.89q0 1.82-0.532 3.08-0.514 1.27-1.61 1.93-1.1 0.66-2.84 0.66-1.8 0-2.95-0.679-1.14-0.697-1.71-1.94-0.55-1.27-0.55-3.01v-11.4h-3.3v-2.95h3.3v-4.95h3.45v4.95h6.44l-0.0367 2.95h-6.4z"/></g></g></svg>
